HIERARCHY
ROOT Hips
{
	OFFSET 0.00 0.00 0.00
	CHANNELS 6 Xposition Yposition Zposition Xrotation Yrotation Zrotation
	JOINT Spine
	{
		OFFSET 0.00000 1.66264 2.49395
		CHANNELS 3 Xrotation Yrotation Zrotation
		JOINT Spine1
		{
			OFFSET 0.00000 0.57743 3.27475
			CHANNELS 3 Xrotation Yrotation Zrotation
			JOINT Spine2
			{
				OFFSET 0.00000 0.28982 3.31262
				CHANNELS 3 Xrotation Yrotation Zrotation
				JOINT Spine3
				{
					OFFSET 0.00000 0.00000 3.32527
					CHANNELS 3 Xrotation Yrotation Zrotation
					JOINT Neck
					{
						OFFSET 0.00000 -1.24697 8.72884
						CHANNELS 3 Xrotation Yrotation Zrotation
						JOINT Head
						{
							OFFSET 0.00000 -0.79396 4.50279
							CHANNELS 3 Xrotation Yrotation Zrotation
							End Site
							{
								OFFSET 0.00000 0.00001 5.38279
							}
						}
					}
					JOINT RightShoulder
					{
						OFFSET -1.14808 -1.91346 6.19963
						CHANNELS 3 Xrotation Yrotation Zrotation
						JOINT RightArm
						{
							OFFSET -5.70212 0.00000 0.00000
							CHANNELS 3 Xrotation Yrotation Zrotation
							JOINT RightForeArm
							{
								OFFSET -10.82477 0.00000 0.00000
								CHANNELS 3 Xrotation Yrotation Zrotation
								JOINT RightHand
								{
									OFFSET -10.02856 0.00000 0.00000
									CHANNELS 3 Xrotation Yrotation Zrotation
									JOINT RightHandEnd
									{
										OFFSET -2.68345 0.00000 0.00000
										CHANNELS 3 Xrotation Yrotation Zrotation
										End Site
										{
											OFFSET -2.68345 0.00000 0.00000
										}
									}
									JOINT RightHandThumb1
									{
										OFFSET -1.07338 -1.78897 -0.71559
										CHANNELS 3 Yrotation Xrotation Zrotation
										End Site
										{
											OFFSET -2.59202 -0.69453 0.00000
										}
									}
								}
							}
						}
					}
					JOINT LeftShoulder
					{
						OFFSET 1.14808 -1.91346 6.19963
						CHANNELS 3 Xrotation Yrotation Zrotation
						JOINT LeftArm
						{
							OFFSET 5.70212 0.00000 0.00000
							CHANNELS 3 Xrotation Yrotation Zrotation
							JOINT LeftForeArm
							{
								OFFSET 10.82477 0.00000 0.00000
								CHANNELS 3 Xrotation Yrotation Zrotation
								JOINT LeftHand
								{
									OFFSET 10.02856 0.00000 0.00000
									CHANNELS 3 Xrotation Yrotation Zrotation
									JOINT LeftHandEnd
									{
										OFFSET 2.68345 0.00000 0.00000
										CHANNELS 3 Xrotation Yrotation Zrotation
										End Site
										{
											OFFSET 2.68345 0.00000 0.00000
										}
									}
									JOINT LeftHandThumb1
									{
										OFFSET 1.07338 -1.78897 -0.71559
										CHANNELS 3 Yrotation Xrotation Zrotation
										End Site
										{
											OFFSET 2.59202 -0.69453 0.00000
										}
									}
								}
							}
						}
					}
				}
			}
		}
	}
	JOINT RightUpLeg
	{
		OFFSET -3.40597 0.00000 -0.99500
		CHANNELS 3 Xrotation Yrotation Zrotation
		JOINT RightLeg
		{
			OFFSET 0.00001 0.00000 -17.05191
			CHANNELS 3 Xrotation Yrotation Zrotation
			JOINT RightFoot
			{
				OFFSET 0.00001 0.00000 -15.93260
				CHANNELS 3 Xrotation Yrotation Zrotation
				JOINT RightToeBase
				{
					OFFSET 0.00000 -4.98016 -1.81263
					CHANNELS 3 Xrotation Yrotation Zrotation
					End Site
					{
						OFFSET 0.00000 -2.75539 -0.00000
					}
				}
			}
		}
	}
	JOINT LeftUpLeg
	{
		OFFSET 3.40597 0.00000 -0.99500
		CHANNELS 3 Xrotation Yrotation Zrotation
		JOINT LeftLeg
		{
			OFFSET 0.00001 0.00000 -17.05191
			CHANNELS 3 Xrotation Yrotation Zrotation
			JOINT LeftFoot
			{
				OFFSET 0.00001 0.00000 -15.93260
				CHANNELS 3 Xrotation Yrotation Zrotation
				JOINT LeftToeBase
				{
					OFFSET 0.00000 -4.98016 -1.81263
					CHANNELS 3 Xrotation Yrotation Zrotation
					End Site
					{
						OFFSET 0.00000 -2.75539 -0.00000
					}
				}
			}
		}
	}
}
MOTION
Frames: 13
Frame Time: 0.008342
 11.1090 -100.6849 35.3037 -2.5782 2.0261 179.6472 -2.6451 1.5536 0.0444 -1.6981 -0.1506 0.0079 -0.1891 -0.8086 0.3956 0.4538 -0.0860 0.1962 2.4028 1.2093 -3.3262 -1.2185 -0.4768 -6.5443 -0.6673 12.0210 0.7558 -23.7407 -15.5038 -9.6973 0.0000 0.0000 17.9866 -8.8777 30.4243 2.1734 0.0000 0.0000 -0.0000 0.0000 -0.0000 0.0000 3.8065 -12.3733 1.9754 -16.0117 21.4329 1.3764 -0.0000 -0.0000 -15.5562 -9.8445 -27.8320 1.7820 -0.0000 0.0000 0.0000 0.0000 0.0000 0.0000 -2.6287 0.4271 -32.0197 3.0977 0.0000 0.0000 -10.3009 2.3520 -0.2159 2.8363 0.0000 0.0000 -0.1578 3.6587 32.2161 -2.5813 0.0000 -0.0000 -3.4302 8.0846 14.9222 -0.2975 0.0000 -0.0000
 11.1101 -100.6844 35.3036 -2.5782 2.0278 179.6460 -2.6500 1.5518 0.0443 -1.7004 -0.1502 0.0087 -0.1850 -0.8080 0.3962 0.4539 -0.0857 0.1956 2.3976 1.2048 -3.3255 -1.2133 -0.4782 -6.5521 -0.6847 12.0188 0.7442 -23.7349 -15.5109 -9.6909 0.0000 0.0000 17.9793 -8.8822 30.4212 2.1766 0.0000 -0.0000 0.0000 -0.0000 0.0000 0.0000 3.8073 -12.3703 1.9754 -16.0132 21.4378 1.3712 -0.0000 -0.0000 -15.5515 -9.8434 -27.8306 1.7853 0.0000 -0.0000 -0.0000 0.0000 -0.0000 0.0000 -2.6282 0.4271 -32.0230 3.0985 0.0000 0.0000 -10.3039 2.3554 -0.2116 2.8361 0.0000 0.0000 -0.1554 3.6593 32.2194 -2.5841 0.0000 -0.0000 -3.4286 8.0864 14.9199 -0.3000 0.0000 -0.0000
 11.1115 -100.6834 35.3034 -2.5748 2.0314 179.6432 -2.6538 1.5507 0.0447 -1.7018 -0.1506 0.0086 -0.1808 -0.8057 0.3984 0.4541 -0.0863 0.1945 2.3907 1.2000 -3.3238 -1.2073 -0.4802 -6.5611 -0.7005 12.0168 0.7251 -23.7289 -15.5222 -9.6749 0.0000 0.0000 17.9652 -8.8960 30.4236 2.1860 -0.0000 -0.0000 -0.0000 -0.0000 0.0000 0.0000 3.8107 -12.3665 1.9778 -16.0164 21.4450 1.3634 -0.0000 -0.0000 -15.5445 -9.8425 -27.8291 1.7888 -0.0000 0.0000 -0.0000 0.0000 -0.0000 0.0000 -2.6244 0.4289 -32.0250 3.1010 0.0000 0.0000 -10.3096 2.3605 -0.2068 2.8367 0.0000 0.0000 -0.1476 3.6620 32.2248 -2.5896 0.0000 -0.0000 -3.4258 8.0898 14.9174 -0.3036 0.0000 -0.0000
 11.1134 -100.6821 35.3032 -2.5677 2.0346 179.6401 -2.6555 1.5492 0.0446 -1.7036 -0.1520 0.0086 -0.1760 -0.8034 0.4001 0.4543 -0.0867 0.1926 2.3832 1.1944 -3.3216 -1.2008 -0.4828 -6.5703 -0.7166 12.0138 0.7049 -23.7235 -15.5340 -9.6579 0.0000 0.0000 17.9495 -8.9137 30.4283 2.1978 0.0000 -0.0000 0.0000 0.0000 -0.0000 0.0000 3.8156 -12.3620 1.9824 -16.0193 21.4540 1.3528 -0.0000 -0.0000 -15.5354 -9.8412 -27.8280 1.7943 0.0000 0.0000 -0.0000 0.0000 0.0000 0.0000 -2.6159 0.4295 -32.0254 3.1030 0.0000 0.0000 -10.3162 2.3657 -0.2037 2.8382 0.0000 0.0000 -0.1350 3.6639 32.2321 -2.5961 0.0000 -0.0000 -3.4227 8.0933 14.9131 -0.3079 0.0000 -0.0000
 11.1155 -100.6805 35.3030 -2.5596 2.0379 179.6369 -2.6576 1.5469 0.0442 -1.7055 -0.1528 0.0081 -0.1709 -0.8014 0.4007 0.4544 -0.0871 0.1909 2.3753 1.1887 -3.3193 -1.1943 -0.4863 -6.5791 -0.7310 12.0092 0.6844 -23.7191 -15.5453 -9.6401 0.0000 0.0000 17.9328 -8.9369 30.4363 2.2129 -0.0000 0.0000 -0.0000 -0.0000 0.0000 0.0000 3.8229 -12.3562 1.9892 -16.0228 21.4638 1.3403 -0.0000 -0.0000 -15.5246 -9.8376 -27.8268 1.8008 0.0000 0.0000 0.0000 0.0000 -0.0000 0.0000 -2.6063 0.4297 -32.0247 3.1059 0.0000 0.0000 -10.3243 2.3711 -0.2016 2.8412 0.0000 0.0000 -0.1211 3.6652 32.2386 -2.6024 0.0000 -0.0000 -3.4201 8.0966 14.9096 -0.3119 0.0000 -0.0000
 11.1181 -100.6781 35.3028 -2.5406 2.0403 179.6331 -2.6520 1.5437 0.0437 -1.7062 -0.1534 0.0080 -0.1645 -0.8004 0.3997 0.4536 -0.0873 0.1888 2.3690 1.1832 -3.3173 -1.1902 -0.4900 -6.5866 -0.7420 12.0057 0.6638 -23.7158 -15.5582 -9.6217 0.0000 0.0000 17.9148 -8.9656 30.4476 2.2308 0.0000 0.0000 0.0000 0.0000 0.0000 0.0000 3.8329 -12.3513 1.9984 -16.0257 21.4759 1.3261 -0.0000 -0.0000 -15.5123 -9.8345 -27.8248 1.8082 0.0000 -0.0000 -0.0000 -0.0000 0.0000 0.0000 -2.5830 0.4279 -32.0231 3.1065 0.0000 0.0000 -10.3329 2.3748 -0.2000 2.8456 0.0000 0.0000 -0.0936 3.6658 32.2479 -2.6114 0.0000 -0.0000 -3.4171 8.1013 14.9037 -0.3154 0.0000 -0.0000
 11.1210 -100.6768 35.3025 -2.5393 2.0429 179.6299 -2.6609 1.5402 0.0426 -1.7100 -0.1539 0.0076 -0.1593 -0.8000 0.3976 0.4545 -0.0872 0.1870 2.3613 1.1787 -3.3165 -1.1827 -0.4959 -6.5921 -0.7512 11.9967 0.6464 -23.7153 -15.5648 -9.6067 0.0000 0.0000 17.9004 -8.9953 30.4611 2.2502 0.0000 -0.0000 0.0000 0.0000 -0.0000 0.0000 3.8439 -12.3419 2.0095 -16.0290 21.4852 1.3102 -0.0000 -0.0000 -15.4998 -9.8289 -27.8242 1.8167 0.0000 0.0000 0.0000 -0.0000 0.0000 -0.0000 -2.5825 0.4270 -32.0147 3.1135 0.0000 0.0000 -10.3432 2.3806 -0.2048 2.8520 0.0000 0.0000 -0.0889 3.6643 32.2562 -2.6142 0.0000 -0.0000 -3.4158 8.1023 14.8989 -0.3175 0.0000 -0.0000
 11.1240 -100.6747 35.3022 -2.5284 2.0452 179.6263 -2.6629 1.5361 0.0422 -1.7122 -0.1536 0.0074 -0.1535 -0.8006 0.3927 0.4545 -0.0871 0.1853 2.3560 1.1755 -3.3170 -1.1783 -0.5020 -6.5955 -0.7547 11.9894 0.6307 -23.7176 -15.5716 -9.5937 0.0000 0.0000 17.8872 -9.0264 30.4771 2.2703 -0.0000 0.0000 -0.0000 -0.0000 0.0000 -0.0000 3.8577 -12.3330 2.0225 -16.0306 21.4956 1.2926 -0.0000 -0.0000 -15.4856 -9.8252 -27.8222 1.8234 0.0000 0.0000 0.0000 0.0000 -0.0000 0.0000 -2.5703 0.4252 -32.0057 3.1191 0.0000 0.0000 -10.3545 2.3846 -0.2100 2.8607 0.0000 0.0000 -0.0724 3.6628 32.2660 -2.6188 0.0000 -0.0000 -3.4143 8.1051 14.8928 -0.3176 0.0000 -0.0000
 11.1274 -100.6720 35.3020 -2.5081 2.0454 179.6238 -2.6568 1.5295 0.0402 -1.7131 -0.1507 0.0091 -0.1497 -0.8039 0.3828 0.4549 -0.0867 0.1855 2.3539 1.1737 -3.3189 -1.1778 -0.5079 -6.5965 -0.7534 11.9838 0.6199 -23.7223 -15.5775 -9.5869 0.0000 0.0000 17.8777 -9.0569 30.4939 2.2899 -0.0000 -0.0000 -0.0000 -0.0000 0.0000 0.0000 3.8746 -12.3256 2.0377 -16.0318 21.5076 1.2746 -0.0000 -0.0000 -15.4717 -9.8206 -27.8187 1.8297 0.0000 -0.0000 -0.0000 -0.0000 0.0000 -0.0000 -2.5457 0.4201 -31.9971 3.1215 0.0000 0.0000 -10.3648 2.3849 -0.2159 2.8713 0.0000 0.0000 -0.0449 3.6590 32.2766 -2.6243 0.0000 -0.0000 -3.4132 8.1084 14.8843 -0.3155 0.0000 -0.0000
 11.1307 -100.6706 35.3016 -2.5065 2.0474 179.6215 -2.6663 1.5263 0.0400 -1.7171 -0.1527 0.0065 -0.1443 -0.8052 0.3777 0.4553 -0.0852 0.1831 2.3519 1.1739 -3.3232 -1.1753 -0.5161 -6.5952 -0.7496 11.9737 0.6145 -23.7299 -15.5764 -9.5870 0.0000 0.0000 17.8748 -9.0856 30.5125 2.3082 -0.0000 0.0000 0.0000 0.0000 -0.0000 -0.0000 3.8889 -12.3137 2.0497 -16.0316 21.5133 1.2607 -0.0000 -0.0000 -15.4609 -9.8149 -27.8136 1.8363 0.0000 -0.0000 -0.0000 0.0000 -0.0000 0.0000 -2.5461 0.4184 -31.9811 3.1321 0.0000 0.0000 -10.3778 2.3882 -0.2280 2.8847 0.0000 0.0000 -0.0420 3.6550 32.2831 -2.6226 0.0000 -0.0000 -3.4142 8.1089 14.8808 -0.3105 0.0000 -0.0000
 11.1343 -100.6683 35.3013 -2.4916 2.0465 179.6203 -2.6633 1.5199 0.0389 -1.7190 -0.1506 0.0066 -0.1417 -0.8099 0.3663 0.4561 -0.0844 0.1828 2.3535 1.1760 -3.3284 -1.1773 -0.5231 -6.5918 -0.7416 11.9671 0.6144 -23.7391 -15.5745 -9.5941 0.0000 0.0000 17.8769 -9.1100 30.5294 2.3239 -0.0000 -0.0000 -0.0000 -0.0000 -0.0000 0.0000 3.9075 -12.3037 2.0655 -16.0298 21.5212 1.2432 -0.0000 -0.0000 -15.4487 -9.8120 -27.8070 1.8395 -0.0000 0.0000 -0.0000 -0.0000 -0.0000 0.0000 -2.5289 0.4124 -31.9651 3.1376 0.0000 0.0000 -10.3884 2.3872 -0.2417 2.8996 0.0000 0.0000 -0.0232 3.6482 32.2913 -2.6226 0.0000 -0.0000 -3.4155 8.1102 14.8739 -0.3037 0.0000 -0.0000
 11.1378 -100.6667 35.3010 -2.4882 2.0472 179.6203 -2.6710 1.5165 0.0385 -1.7222 -0.1517 0.0056 -0.1372 -0.8131 0.3551 0.4567 -0.0823 0.1822 2.3559 1.1786 -3.3357 -1.1793 -0.5305 -6.5868 -0.7337 11.9581 0.6204 -23.7490 -15.5675 -9.6097 0.0000 0.0000 17.8855 -9.1300 30.5458 2.3374 -0.0000 -0.0000 -0.0000 -0.0000 0.0000 0.0000 3.9234 -12.2929 2.0785 -16.0251 21.5253 1.2290 -0.0000 -0.0000 -15.4389 -9.8112 -27.8001 1.8407 0.0000 0.0000 0.0000 -0.0000 -0.0000 0.0000 -2.5263 0.4089 -31.9510 3.1466 0.0000 0.0000 -10.4003 2.3876 -0.2537 2.9164 0.0000 0.0000 -0.0196 3.6421 32.2979 -2.6183 0.0000 -0.0000 -3.4173 8.1110 14.8681 -0.2947 0.0000 -0.0000
 11.1414 -100.6644 35.3007 -2.4740 2.0459 179.6208 -2.6671 1.5101 0.0379 -1.7238 -0.1494 0.0054 -0.1366 -0.8187 0.3425 0.4581 -0.0807 0.1826 2.3610 1.1826 -3.3440 -1.1854 -0.5363 -6.5817 -0.7221 11.9528 0.6276 -23.7607 -15.5611 -9.6298 0.0000 0.0000 17.8982 -9.1476 30.5595 2.3492 -0.0000 0.0000 -0.0000 -0.0000 -0.0000 0.0000 3.9398 -12.2840 2.0894 -16.0198 21.5296 1.2175 -0.0000 -0.0000 -15.4310 -9.8112 -27.7909 1.8410 -0.0000 -0.0000 -0.0000 0.0000 -0.0000 -0.0000 -2.5099 0.4025 -31.9344 3.1521 0.0000 0.0000 -10.4102 2.3855 -0.2692 2.9337 0.0000 0.0000 -0.0031 3.6342 32.3025 -2.6151 0.0000 -0.0000 -3.4197 8.1124 14.8633 -0.2851 0.0000 -0.0000
